<?xml version="1.0" encoding="utf-8"?>
<!-- Generator: Adobe Illustrator 24.0.0, SVG Export Plug-In . SVG Version: 6.00 Build 0)  -->
<svg version="1.1" id="Layer_1" xmlns="http://www.w3.org/2000/svg" xmlns:xlink="http://www.w3.org/1999/xlink" x="0px" y="0px"
	 viewBox="0 0 444.8 213.7" style="enable-background:new 0 0 444.8 213.7;" xml:space="preserve">
<style type="text/css">
	.st0{fill:none;stroke:url(#SVGID_1_);stroke-width:10;stroke-miterlimit:10;}
	.st1{fill:none;stroke:url(#SVGID_2_);stroke-width:10;stroke-miterlimit:10;}
</style>
<g id="Layer_1_1_">
	
		<linearGradient id="SVGID_1_" gradientUnits="userSpaceOnUse" x1="246.831" y1="734.9998" x2="388.1" y2="734.9998" gradientTransform="matrix(1 0 0 1 0 -628)">
		<stop  offset="0" style="stop-color:#E8CC25"/>
		<stop  offset="1" style="stop-color:#E8B125"/>
	</linearGradient>
	<path class="st0" d="M312.9,178.1c38.9-0.5,70.2-32.1,70.2-71.1c0-39.3-31.9-71.1-71.1-71.1c-25.8,0-48.4,13.8-60.9,34.3"/>
	
		<linearGradient id="SVGID_2_" gradientUnits="userSpaceOnUse" x1="56.6" y1="737.15" x2="336.9" y2="737.15" gradientTransform="matrix(1 0 0 1 0 -628)">
		<stop  offset="0" style="stop-color:#FFFFFF"/>
		<stop  offset="1" style="stop-color:#DAF2F2"/>
	</linearGradient>
	<path class="st1" d="M91.4,118.6c1.2,0,2.4,0.1,3.6,0.2c6.7-13.5,20.7-22.8,36.8-22.8c3.4,0,6.6,0.4,9.8,1.2
		c0.9-31.6,26.8-56.9,58.5-56.9c32.1,0,58.1,25.8,58.6,57.7c4-1.3,8.3-2,12.8-2c22.7,0,41,18.4,41,41c0,0.8,0,1.5-0.1,2.2
		c0,0,0,0,0.1,0c10.7,0,19.4,8.7,19.4,19.4s-8.7,19.4-19.4,19.4H91.4c-16.4,0-29.8-13.3-29.8-29.8C61.6,131.9,74.9,118.6,91.4,118.6
		z"/>
</g>
</svg>
