<?xml version="1.0" encoding="utf-8"?>
<!-- Generator: Adobe Illustrator 24.0.0, SVG Export Plug-In . SVG Version: 6.00 Build 0)  -->
<svg version="1.1" id="Layer_1" xmlns="http://www.w3.org/2000/svg" xmlns:xlink="http://www.w3.org/1999/xlink" x="0px" y="0px"
	 viewBox="0 0 436.04 800" style="enable-background:new 0 0 436.04 800;" xml:space="preserve">
<style type="text/css">
	.st0{fill:url(#SVGID_1_);}
	.st1{opacity:0.46;fill:#FFFFFF;enable-background:new    ;}
	.st2{fill:#020307;}
	.st3{fill:#0B0F26;}
	.st4{fill:#101735;}
</style>
<g id="Layer_1_1_">
	
		<linearGradient id="SVGID_1_" gradientUnits="userSpaceOnUse" x1="-121.6125" y1="757.0172" x2="597.8225" y2="37.5823" gradientTransform="matrix(1 0 0 -1 0 799.8898)">
		<stop  offset="0" style="stop-color:#000000"/>
		<stop  offset="0.3657" style="stop-color:#040417"/>
		<stop  offset="0.7109" style="stop-color:#070726"/>
		<stop  offset="1" style="stop-color:#08082B"/>
	</linearGradient>
	<rect x="-74.08" y="-4.66" class="st0" width="624.37" height="814.5"/>
	<g id="Layer_2_1_">
		<g>
			<path class="st1" d="M531.15,527.54c0,1.21-0.98,2.19-2.19,2.19s-2.19-0.98-2.19-2.19s0.98-2.19,2.19-2.19
				S531.15,526.33,531.15,527.54z"/>
			<circle class="st1" cx="549.82" cy="486.1" r="2.45"/>
			<path class="st1" d="M556.83,584.97c0,0.59-0.48,1.06-1.06,1.06c-0.59,0-1.06-0.48-1.06-1.06s0.48-1.06,1.06-1.06
				C556.36,583.91,556.83,584.39,556.83,584.97z"/>
			<path class="st1" d="M567.45,567.12c0,0.53-0.43,0.97-0.97,0.97c-0.53,0-0.97-0.43-0.97-0.97c0-0.53,0.43-0.97,0.97-0.97
				S567.45,566.58,567.45,567.12z"/>
			<path class="st1" d="M518.99,593.27c0,0.27-0.22,0.48-0.48,0.48c-0.27,0-0.48-0.22-0.48-0.48c0-0.27,0.22-0.48,0.48-0.48
				C518.78,592.79,518.99,593.01,518.99,593.27z"/>
			<path class="st1" d="M451.81,502.54c0,0.27-0.22,0.48-0.48,0.48c-0.27,0-0.48-0.22-0.48-0.48s0.22-0.48,0.48-0.48
				S451.81,502.27,451.81,502.54z"/>
			<path class="st1" d="M482.7,465.47c0,0.69-0.56,1.25-1.25,1.25s-1.25-0.56-1.25-1.25s0.56-1.25,1.25-1.25
				S482.7,464.78,482.7,465.47z"/>
			<path class="st1" d="M371.12,598.49c0,0.8-0.65,1.45-1.45,1.45s-1.45-0.65-1.45-1.45s0.65-1.45,1.45-1.45
				S371.12,597.69,371.12,598.49z"/>
			<path class="st1" d="M418.87,570.75c0,0.62-0.5,1.12-1.12,1.12s-1.12-0.5-1.12-1.12s0.5-1.12,1.12-1.12
				C418.37,569.62,418.87,570.13,418.87,570.75z"/>
			<path class="st1" d="M400.65,515.96L400.65,515.96L400.65,515.96z"/>
			<path class="st1" d="M418.87,619.43L418.87,619.43L418.87,619.43z"/>
			<path class="st1" d="M453.07,633.96c0,0.35-0.28,0.63-0.63,0.63s-0.63-0.28-0.63-0.63s0.28-0.63,0.63-0.63
				C452.78,633.33,453.07,633.61,453.07,633.96z"/>
			<path class="st1" d="M223.58,540.74c0,1.32-1.07,2.39-2.39,2.39s-2.39-1.07-2.39-2.39s1.07-2.39,2.39-2.39
				S223.58,539.42,223.58,540.74z"/>
			<path class="st1" d="M280.93,517.48c0,0.84-0.68,1.53-1.53,1.53c-0.84,0-1.53-0.68-1.53-1.53c0-0.84,0.68-1.53,1.53-1.53
				C280.24,515.96,280.93,516.64,280.93,517.48z"/>
			<path class="st1" d="M343.9,488.54L343.9,488.54L343.9,488.54z"/>
			<path class="st1" d="M338.49,549.74c0,0.53-0.43,0.97-0.97,0.97c-0.53,0-0.97-0.43-0.97-0.97c0-0.53,0.43-0.97,0.97-0.97
				C338.06,548.78,338.49,549.21,338.49,549.74z"/>
			<path class="st1" d="M250.84,597.04L250.84,597.04L250.84,597.04z"/>
			<path class="st1" d="M270.92,637.77c0,0.53-0.43,0.97-0.97,0.97c-0.53,0-0.97-0.43-0.97-0.97c0-0.53,0.43-0.97,0.97-0.97
				C270.49,636.81,270.92,637.24,270.92,637.77z"/>
			<path class="st1" d="M194.76,632.37c0,0.53-0.43,0.97-0.97,0.97c-0.53,0-0.97-0.43-0.97-0.97c0-0.53,0.43-0.97,0.97-0.97
				S194.76,631.83,194.76,632.37z"/>
			<path class="st1" d="M252.39,578.89c0,0.43-0.35,0.77-0.77,0.77c-0.43,0-0.77-0.35-0.77-0.77c0-0.43,0.35-0.77,0.77-0.77
				S252.39,578.46,252.39,578.89z"/>
			<path class="st1" d="M128.26,614.32c0,0.59-0.48,1.06-1.06,1.06s-1.06-0.48-1.06-1.06c0-0.59,0.48-1.06,1.06-1.06
				S128.26,613.73,128.26,614.32z"/>
			<path class="st1" d="M152.39,585.26c0,0.96-0.78,1.74-1.74,1.74s-1.74-0.78-1.74-1.74c0-0.96,0.78-1.74,1.74-1.74
				S152.39,584.3,152.39,585.26z"/>
			<path class="st1" d="M47.94,601.57c0,0.91,0.73,1.64,1.64,1.64s1.64-0.73,1.64-1.64s-0.73-1.64-1.64-1.64
				S47.94,600.67,47.94,601.57z"/>
			<circle class="st1" cx="45.92" cy="528.79" r="1.25"/>
			<path class="st1" d="M70.52,516.72c0-0.42-0.34-0.76-0.76-0.76S69,516.3,69,516.72s0.34,0.76,0.76,0.76
				S70.52,517.14,70.52,516.72z"/>
			<path class="st1" d="M88.68,547.04c0,0.32-0.26,0.58-0.58,0.58s-0.58-0.26-0.58-0.58s0.26-0.58,0.58-0.58
				C88.42,546.46,88.68,546.72,88.68,547.04z"/>
			<circle class="st1" cx="7.32" cy="578.31" r="1.35"/>
			<path class="st1" d="M0.19,633.33L0.19,633.33L0.19,633.33z"/>
			<circle class="st1" cx="-75.7" cy="637.29" r="0.48"/>
			<path class="st1" d="M-26.96,626.29c0,0.59-0.48,1.06-1.06,1.06s-1.06-0.48-1.06-1.06s0.48-1.06,1.06-1.06
				S-26.96,625.7-26.96,626.29z"/>
			<circle class="st1" cx="-33.66" cy="600.75" r="0.82"/>
			<path class="st1" d="M587.68,77.36c0,0.53-0.43,0.97-0.97,0.97c-0.53,0-0.97-0.43-0.97-0.97c0-0.53,0.43-0.97,0.97-0.97
				S587.68,76.82,587.68,77.36z"/>
			<path class="st1" d="M521.17,59.31c0,0.59-0.48,1.06-1.06,1.06s-1.06-0.48-1.06-1.06s0.48-1.06,1.06-1.06
				S521.17,58.72,521.17,59.31z"/>
			<path class="st1" d="M545.31,30.25c0,0.96-0.78,1.74-1.74,1.74s-1.74-0.78-1.74-1.74s0.78-1.74,1.74-1.74
				S545.31,29.29,545.31,30.25z"/>
			<path class="st1" d="M440.85,46.57c0,0.91,0.73,1.64,1.64,1.64s1.64-0.73,1.64-1.64s-0.73-1.64-1.64-1.64
				C441.59,44.92,440.85,45.66,440.85,46.57z"/>
			<circle class="st1" cx="400.24" cy="23.3" r="1.35"/>
			<path class="st1" d="M393.11,78.32L393.11,78.32L393.11,78.32z"/>
			<path class="st1" d="M365.96,71.28c0,0.59-0.48,1.06-1.06,1.06s-1.06-0.48-1.06-1.06c0-0.59,0.48-1.06,1.06-1.06
				S365.96,70.69,365.96,71.28z"/>
			<circle class="st1" cx="359.25" cy="45.74" r="0.82"/>
			<path class="st1" d="M-145.1,568.95c0,0.91-0.73,1.64-1.64,1.64s-1.64-0.73-1.64-1.64s0.73-1.64,1.64-1.64
				C-145.84,567.31-145.1,568.04-145.1,568.95z"/>
			<circle class="st1" cx="-121.94" cy="545.88" r="0.58"/>
			<path class="st1" d="M-96.35,569.77c0,0.45-0.37,0.82-0.82,0.82s-0.82-0.37-0.82-0.82s0.37-0.82,0.82-0.82
				S-96.35,569.32-96.35,569.77z"/>
			<circle class="st1" cx="-41.58" cy="476.42" r="1.39"/>
			<circle class="st1" cx="23.24" cy="426.96" r="0.58"/>
			<path class="st1" d="M24.59,474.06c0,0.53-0.43,0.97-0.97,0.97c-0.53,0-0.97-0.43-0.97-0.97c0-0.53,0.43-0.97,0.97-0.97
				C24.16,473.1,24.59,473.53,24.59,474.06z"/>
			<circle class="st1" cx="71.11" cy="436.23" r="2.12"/>
			<path class="st1" d="M-95.86,391.81c0,0.59-0.48,1.07-1.06,1.07s-1.07-0.48-1.07-1.07s0.48-1.06,1.07-1.06
				S-95.86,391.22-95.86,391.81z"/>
			<path class="st1" d="M-42.98,375.42c0,1.07-0.86,1.93-1.93,1.93s-1.93-0.86-1.93-1.93s0.86-1.93,1.93-1.93
				C-43.84,373.48-42.98,374.35-42.98,375.42z"/>
			<path class="st1" d="M-84.68,424.64c0,0.96,0.78,1.74,1.74,1.74s1.74-0.78,1.74-1.74s-0.78-1.74-1.74-1.74
				C-83.9,422.91-84.68,423.68-84.68,424.64z"/>
			<path class="st1" d="M-130.24,454.57L-130.24,454.57L-130.24,454.57z"/>
			<path class="st1" d="M-101.25,312.66c0,0.52-0.42,0.95-0.95,0.95c-0.52,0-0.95-0.42-0.95-0.95c0-0.52,0.42-0.95,0.95-0.95
				S-101.25,312.13-101.25,312.66z"/>
			<circle class="st1" cx="-18.46" cy="271.75" r="0.58"/>
			<circle class="st1" cx="6.96" cy="248.37" r="0.91"/>
			<path class="st1" d="M21.11,332.37c0,0.32-0.26,0.58-0.58,0.58s-0.58-0.26-0.58-0.58c0-0.32,0.26-0.58,0.58-0.58
				S21.11,332.05,21.11,332.37z"/>
			<circle class="st1" cx="71.11" cy="384.49" r="2.12"/>
			<circle class="st1" cx="-134.78" cy="231.23" r="1.25"/>
			<path class="st1" d="M-105.14,133.72L-105.14,133.72L-105.14,133.72z"/>
			<path class="st1" d="M-53.4,175.99c0,1.39-1.12,2.51-2.51,2.51s-2.51-1.12-2.51-2.51s1.12-2.51,2.51-2.51
				C-54.53,173.48-53.4,174.61-53.4,175.99z"/>
			<path class="st1" d="M27.29,142.02c0,0.32-0.26,0.58-0.58,0.58s-0.58-0.26-0.58-0.58s0.26-0.58,0.58-0.58
				S27.29,141.7,27.29,142.02z"/>
			<circle class="st1" cx="116.38" cy="116.24" r="0.68"/>
			<path class="st1" d="M56.33,208.47c0,1.41-1.14,2.56-2.56,2.56c-1.41,0-2.56-1.14-2.56-2.56c0-1.41,1.14-2.56,2.56-2.56
				C55.18,205.92,56.33,207.06,56.33,208.47z"/>
			<circle class="st1" cx="254.47" cy="147.57" r="0.72"/>
			<circle class="st1" cx="313.35" cy="113.97" r="1.12"/>
			<path class="st1" d="M370.15,116.92L370.15,116.92L370.15,116.92z"/>
			<path class="st1" d="M385.4,170.88c0,0.48-0.39,0.87-0.87,0.87s-0.87-0.39-0.87-0.87s0.39-0.87,0.87-0.87
				S385.4,170.4,385.4,170.88z"/>
			<path class="st1" d="M469.38,149.16c0,1.28-1.04,2.32-2.32,2.32s-2.32-1.04-2.32-2.32c0-1.28,1.04-2.32,2.32-2.32
				S469.38,147.88,469.38,149.16z"/>
			<path class="st1" d="M528.32,122.65c0,0.5-0.4,0.9-0.9,0.9s-0.9-0.4-0.9-0.9s0.4-0.9,0.9-0.9S528.32,122.15,528.32,122.65z"/>
			<path class="st1" d="M561.27,153.41L561.27,153.41L561.27,153.41z"/>
			<path class="st1" d="M536.95,206.69c0,0.64-0.52,1.16-1.16,1.16c-0.64,0-1.16-0.52-1.16-1.16s0.52-1.16,1.16-1.16
				S536.95,206.05,536.95,206.69z"/>
			<path class="st1" d="M447.86,248.24c0,0.78-0.63,1.4-1.4,1.4c-0.78,0-1.4-0.63-1.4-1.4c0-0.78,0.63-1.4,1.4-1.4
				C447.23,246.84,447.86,247.47,447.86,248.24z"/>
			<path class="st1" d="M497.56,297.04c0,1.28-1.04,2.32-2.32,2.32s-2.32-1.04-2.32-2.32s1.04-2.32,2.32-2.32
				S497.56,295.76,497.56,297.04z"/>
			<circle class="st1" cx="554.61" cy="289.99" r="1.45"/>
			<path class="st1" d="M436.04,391.26c0,0.28-0.23,0.51-0.51,0.51s-0.51-0.23-0.51-0.51s0.23-0.51,0.51-0.51
				S436.04,390.98,436.04,391.26z"/>
			<path class="st1" d="M502.2,361.52L502.2,361.52L502.2,361.52z"/>
			<path class="st1" d="M552.26,405.98c0,0.68-0.55,1.22-1.22,1.22c-0.68,0-1.22-0.55-1.22-1.22c0-0.68,0.55-1.22,1.22-1.22
				S552.26,405.31,552.26,405.98z"/>
			<path class="st1" d="M152.39,437.29c0,0.59,0,1.06,0,1.06S152.39,437.87,152.39,437.29c0-0.59,0-1.06,0-1.06
				S152.39,436.7,152.39,437.29z"/>
			<circle class="st1" cx="12.16" cy="740.48" r="0.58"/>
			<circle class="st1" cx="60.03" cy="749.74" r="2.12"/>
			<path class="st1" d="M-106.94,705.33c0,0.59-0.48,1.07-1.06,1.07c-0.59,0-1.07-0.48-1.07-1.07s0.48-1.06,1.07-1.06
				C-107.42,704.26-106.94,704.74-106.94,705.33z"/>
			<path class="st1" d="M-54.06,688.93c0,1.07-0.86,1.93-1.93,1.93s-1.93-0.86-1.93-1.93s0.86-1.93,1.93-1.93
				S-54.06,687.86-54.06,688.93z"/>
			<path class="st1" d="M-95.76,738.16c0,0.96,0.78,1.74,1.74,1.74s1.74-0.78,1.74-1.74c0-0.96-0.78-1.74-1.74-1.74
				S-95.76,737.2-95.76,738.16z"/>
			<path class="st1" d="M-141.32,768.08L-141.32,768.08L-141.32,768.08z"/>
			<path class="st1" d="M-112.33,626.17c0,0.52-0.42,0.95-0.95,0.95c-0.52,0-0.95-0.42-0.95-0.95s0.42-0.95,0.95-0.95
				S-112.33,625.65-112.33,626.17z"/>
			<path class="st1" d="M10.03,645.88c0,0.32-0.26,0.58-0.58,0.58s-0.58-0.26-0.58-0.58s0.26-0.58,0.58-0.58
				S10.03,645.56,10.03,645.88z"/>
			<circle class="st1" cx="60.03" cy="698" r="2.12"/>
			<path class="st1" d="M141.31,750.8c0,0.59,0,1.06,0,1.06S141.31,751.39,141.31,750.8s0-1.06,0-1.06S141.31,750.22,141.31,750.8z"
				/>
			<path class="st1" d="M242.35,455.92c0,1.17-0.95,2.12-2.12,2.12s-2.12-0.95-2.12-2.12c0-1.17,0.95-2.12,2.12-2.12
				C241.4,453.79,242.35,454.75,242.35,455.92z"/>
			<path class="st1" d="M297.37,428.02c0,0.91-0.73,1.64-1.64,1.64s-1.64-0.73-1.64-1.64s0.73-1.64,1.64-1.64
				S297.37,427.12,297.37,428.02z"/>
			<path class="st1" d="M139.65,205.72c0,0.11-0.09,0.19-0.19,0.19s-0.19-0.09-0.19-0.19c0-0.11,0.09-0.19,0.19-0.19
				S139.65,205.62,139.65,205.72z"/>
			<path class="st1" d="M373.6,243.79c0,0.42-0.34,0.76-0.76,0.76s-0.76-0.34-0.76-0.76s0.34-0.76,0.76-0.76
				S373.6,243.37,373.6,243.79z"/>
			<circle class="st1" cx="411.1" cy="346.78" r="1.95"/>
			<path class="st1" d="M333.86,448.39c0,0.43-0.35,0.77-0.77,0.77c-0.43,0-0.77-0.35-0.77-0.77c0-0.43,0.35-0.77,0.77-0.77
				C333.51,447.62,333.86,447.96,333.86,448.39z"/>
			<path class="st1" d="M-125.73,137.58c0,0.5-0.4,0.9-0.9,0.9s-0.9-0.4-0.9-0.9s0.4-0.9,0.9-0.9
				C-126.14,136.68-125.73,137.08-125.73,137.58z"/>
			<path class="st1" d="M574.59,142.95c0,0.84-0.68,1.51-1.51,1.51c-0.84,0-1.51-0.68-1.51-1.51c0-0.84,0.68-1.51,1.51-1.51
				S574.59,142.11,574.59,142.95z"/>
			<path class="st1" d="M345.64,595.78L345.64,595.78L345.64,595.78z"/>
			<path class="st1" d="M360.89,649.74c0,0.48-0.39,0.87-0.87,0.87s-0.87-0.39-0.87-0.87s0.39-0.87,0.87-0.87
				S360.89,649.26,360.89,649.74z"/>
			<path class="st1" d="M444.87,628.02c0,1.28-1.04,2.32-2.32,2.32s-2.32-1.04-2.32-2.32s1.04-2.32,2.32-2.32
				S444.87,626.74,444.87,628.02z"/>
			<path class="st1" d="M503.82,601.51c0,0.5-0.4,0.9-0.9,0.9s-0.9-0.4-0.9-0.9s0.4-0.9,0.9-0.9
				C503.41,600.61,503.82,601.01,503.82,601.51z"/>
			<path class="st1" d="M536.76,632.27L536.76,632.27L536.76,632.27z"/>
			<path class="st1" d="M512.44,685.55c0,0.64-0.52,1.16-1.16,1.16s-1.16-0.52-1.16-1.16c0-0.64,0.52-1.16,1.16-1.16
				S512.44,684.91,512.44,685.55z"/>
			<path class="st1" d="M423.35,727.11c0,0.78-0.63,1.4-1.4,1.4c-0.78,0-1.4-0.63-1.4-1.4c0-0.78,0.63-1.4,1.4-1.4
				C422.73,725.7,423.35,726.33,423.35,727.11z"/>
			<path class="st1" d="M473.06,775.9c0,1.28-1.04,2.32-2.32,2.32s-2.32-1.04-2.32-2.32s1.04-2.32,2.32-2.32
				S473.06,774.62,473.06,775.9z"/>
			<circle class="st1" cx="530.1" cy="768.85" r="1.45"/>
			<path class="st1" d="M349.1,722.65c0,0.42-0.34,0.76-0.76,0.76s-0.76-0.34-0.76-0.76s0.34-0.76,0.76-0.76
				C348.75,721.89,349.1,722.23,349.1,722.65z"/>
			<path class="st1" d="M550.08,621.81c0,0.84-0.68,1.51-1.51,1.51c-0.84,0-1.51-0.68-1.51-1.51c0-0.84,0.68-1.51,1.51-1.51
				C549.41,620.3,550.08,620.98,550.08,621.81z"/>
			<path class="st1" d="M591.43,357.73c0-0.51-0.41-0.92-0.92-0.92s-0.92,0.41-0.92,0.92s0.41,0.92,0.92,0.92
				C591.02,358.65,591.43,358.24,591.43,357.73z"/>
			<path class="st1" d="M546.57,633.96c0,0.35-0.28,0.63-0.63,0.63s-0.63-0.28-0.63-0.63s0.28-0.63,0.63-0.63
				S546.57,633.61,546.57,633.96z"/>
			<path class="st1" d="M105.01,63.24c0,0.59-0.48,1.06-1.06,1.06c-0.59,0-1.06-0.48-1.06-1.06c0-0.59,0.48-1.06,1.06-1.06
				C104.54,62.18,105.01,62.65,105.01,63.24z"/>
			<path class="st1" d="M115.63,45.38c0,0.53-0.43,0.97-0.97,0.97c-0.53,0-0.97-0.43-0.97-0.97c0-0.53,0.43-0.97,0.97-0.97
				C115.2,44.42,115.63,44.85,115.63,45.38z"/>
			<path class="st1" d="M67.18,71.54c0,0.27-0.22,0.48-0.48,0.48c-0.27,0-0.48-0.22-0.48-0.48c0-0.27,0.22-0.48,0.48-0.48
				S67.18,71.27,67.18,71.54z"/>
			<path class="st1" d="M-80.7,76.75c0,0.8-0.65,1.45-1.45,1.45c-0.8,0-1.45-0.65-1.45-1.45s0.65-1.45,1.45-1.45
				S-80.7,75.95-80.7,76.75z"/>
			<path class="st1" d="M-32.95,49.01c0,0.62-0.5,1.12-1.12,1.12s-1.12-0.5-1.12-1.12s0.5-1.12,1.12-1.12S-32.95,48.39-32.95,49.01z
				"/>
			<path class="st1" d="M-32.95,97.7L-32.95,97.7L-32.95,97.7z"/>
			<path class="st1" d="M1.25,112.22c0,0.35-0.28,0.63-0.63,0.63s-0.63-0.28-0.63-0.63s0.28-0.63,0.63-0.63
				C0.97,111.6,1.25,111.88,1.25,112.22z"/>
			<path class="st1" d="M-113.33,28.01c0,0.53-0.43,0.97-0.97,0.97c-0.53,0-0.97-0.43-0.97-0.97c0-0.53,0.43-0.97,0.97-0.97
				S-113.33,27.47-113.33,28.01z"/>
			<path class="st1" d="M94.75,112.22c0,0.35-0.28,0.63-0.63,0.63s-0.63-0.28-0.63-0.63s0.28-0.63,0.63-0.63
				C94.47,111.6,94.75,111.88,94.75,112.22z"/>
			<path class="st1" d="M-121.36,488.03c0,1.28-1.04,2.32-2.32,2.32s-2.32-1.04-2.32-2.32s1.04-2.32,2.32-2.32
				S-121.36,486.75-121.36,488.03z"/>
			<path class="st1" d="M-69.62,282.24c0,0.5-0.4,0.9-0.9,0.9s-0.9-0.4-0.9-0.9s0.4-0.9,0.9-0.9S-69.62,281.74-69.62,282.24z"/>
			<path class="st1" d="M200.94,750.92c0,0.52-0.42,0.95-0.95,0.95c-0.52,0-0.95-0.42-0.95-0.95c0-0.52,0.42-0.95,0.95-0.95
				C200.51,749.97,200.94,750.39,200.94,750.92z"/>
			<circle class="st1" cx="283.72" cy="710.01" r="0.58"/>
			<circle class="st1" cx="309.15" cy="686.63" r="0.91"/>
			<circle class="st1" cx="167.41" cy="669.49" r="1.25"/>
			<path class="st1" d="M232.56,720.5c0,0.5-0.4,0.9-0.9,0.9s-0.9-0.4-0.9-0.9s0.4-0.9,0.9-0.9
				C232.16,719.59,232.56,720,232.56,720.5z"/>
			<path class="st1" d="M169.51,109.39L169.51,109.39L169.51,109.39z"/>
		</g>
	</g>
	<g>
		<g>
			<path class="st2" d="M551.69,633.59c-65.07-71.05-135.89,9.04-222.02,39.81S130.62,514.69,36.83,579.76
				c-93.78,65.07-137.81-18.18-202.88,58.38v166.9h717.73V633.59H551.69z"/>
			<path class="st3" d="M551.69,654.41c-47.85-17.23-45.94,45.94-133.98,7.64c-88.04-38.29-226.49,70.14-296.52,23.94
				c-104.45-68.9-153.26-70.82-287.23,0v119.06h717.73V654.41z"/>
			<path class="st4" d="M551.69,689.81c-115.79-67.95-269.87,44.02-371,72.73C79.56,791.25-62.69,603.69-166.05,600.82v204.23
				h717.73V689.81H551.69z"/>
		</g>
	</g>
</g>
</svg>
